<?xml version="1.0" encoding="UTF-8" standalone="no"?>
<!-- Created with Inkscape (http://www.inkscape.org/) -->

<svg
   width="512mm"
   height="512mm"
   viewBox="0 0 512.00001 512"
   version="1.1"
   id="svg1"
   xmlns:xlink="http://www.w3.org/1999/xlink"
   xmlns="http://www.w3.org/2000/svg"
   xmlns:svg="http://www.w3.org/2000/svg">
  <defs
     id="defs1">
    <linearGradient
       id="linearGradient26">
      <stop
         style="stop-color:#ffff8e;stop-opacity:1;"
         offset="0"
         id="stop26" />
      <stop
         style="stop-color:#ffffc4;stop-opacity:1;"
         offset="1"
         id="stop27" />
    </linearGradient>
    <linearGradient
       xlink:href="#linearGradient26"
       id="linearGradient27"
       x1="56.03619"
       y1="220.26314"
       x2="456.12952"
       y2="220.26314"
       gradientUnits="userSpaceOnUse" />
  </defs>
  <g
     id="layer1"
     style="display:inline;stroke-width:0.914889"
     transform="matrix(1.0930292,0,0,1.0930292,-23.815408,-8.9842134)">
    <path
       d="M 456.1396,383.11667 H 56.160913 a 200.28958,42.862499 0 0 0 -0.450618,1.47071 200.28958,42.862499 0 0 0 200.289585,42.8625 200.28958,42.862499 0 0 0 200.28958,-42.8625 200.28958,42.862499 0 0 0 -0.14986,-1.47071 z"
       style="display:inline;opacity:1;fill:#ffff00;stroke-width:0.608402"
       id="path14" />
    <path
       id="rect11"
       style="display:inline;opacity:1;fill:#ffffaa;fill-opacity:1;stroke-width:0.608402"
       d="M 208.06874,57.412101 H 300.112 L 456.12951,383.11418 H 56.036191 Z" />
    <path
       id="path26"
       style="display:inline;opacity:1;fill:url(#linearGradient27);fill-opacity:1;stroke-width:0.608402"
       d="M 208.06874,57.412101 H 300.112 L 456.12951,383.11418 H 56.036191 Z" />
    <ellipse
       style="display:inline;opacity:1;fill:#ffff00;fill-opacity:1;stroke:none;stroke-width:0.608402;stroke-dasharray:none;stroke-opacity:1"
       id="path9"
       cx="256"
       cy="384.58749"
       rx="200.28958"
       ry="42.862499" />
  </g>
  <g
     id="layer4">
    <path
       style="opacity:1;fill:none;fill-opacity:1;fill-rule:nonzero;stroke:#333333;stroke-width:20;stroke-linecap:round;stroke-linejoin:round;stroke-dasharray:160, 160;stroke-dashoffset:0;stroke-opacity:1"
       d="m 36.856468,410.09837 c 37.387376,58.90575 414.072282,54.17854 437.413302,0.74834 L 299.52895,53.507359"
       id="path27" />
  </g>
</svg>
